<?xml version="1.0" encoding="UTF-8"?>
<svg xmlns="http://www.w3.org/2000/svg" viewBox="0 0 512 512" width="512" height="512">
<path d="M40.25 42.18C46.4 41.81 58.67 45.64 65.28 46.88C81.85 50.01 98.61 52.29 115.27 54.89C128.48 56.95 141.91 57.89 155.22 59.19C190.95 62.67 226.75 64.31 262.75 64.1C297.79 63.9 332.52 61.64 367.27 58.17C377.23 57.17 387.35 56.46 397.23 54.87C413.69 52.22 430.37 50.16 446.71 46.88C453.05 45.6 465.91 41.75 471.75 42.17C473.42 49.96 471.99 65.17 471.99 73.75C471.99 95.42 471.99 117.08 471.99 138.75C471.99 155.92 471.99 173.08 471.99 190.25C471.99 210.74 471.99 231.58 467.8 251.63C464.66 266.68 461.01 281.65 455.79 296.1C437.47 346.79 402.63 395.48 357.52 426.28C333.67 442.55 310.88 454.35 283.91 464.21C277.62 466.51 261.95 472.1 255.75 471.98C249.61 471.85 240.28 467.87 234.18 466.14C213.93 460.4 193.59 451.34 175.64 440.13C104.65 395.76 60.47 333.51 44.19 251.66C40.05 230.84 40.01 209.49 40.01 188.25C40.01 170.25 40.01 152.25 40.01 134.25C40.01 113.58 40.01 92.92 40.01 72.25C40.01 64.05 38.66 49.63 40.25 42.18ZM204.54 46.99C206.78 46.95 209.01 46.91 211.25 46.86C211.35 47.04 211.45 47.22 211.55 47.4C209.21 47.26 206.88 47.13 204.54 46.99ZM308.06 47C305.69 47.13 303.32 47.27 300.95 47.4C301.05 47.22 301.15 47.05 301.25 46.87C303.52 46.91 305.79 46.96 308.06 47ZM211.55 47.4C214.45 47.34 217.35 47.29 220.25 47.23C220.33 47.45 220.42 47.66 220.5 47.87C217.58 47.83 214.67 47.8 211.75 47.76C211.68 47.64 211.62 47.52 211.55 47.4ZM300.95 47.4C300.89 47.52 300.82 47.64 300.75 47.76C298 47.79 295.25 47.83 292.5 47.87C292.58 47.65 292.67 47.44 292.75 47.22C295.48 47.28 298.22 47.34 300.95 47.4ZM232.46 48C248.47 48 264.49 48 280.5 48C277.51 49.11 273.02 48.46 269.75 48.55C261.27 48.8 252.73 48.85 244.25 48.58C240.67 48.47 235.72 49.21 232.46 48ZM79.76 82.25C77.24 82.44 74.33 84.06 73.15 86.38C70.44 91.71 71.99 109.03 71.99 115.75C71.99 151.97 70.44 188.62 73.03 224.75C74.03 238.71 76.82 253.1 80.77 266.41C99.82 330.51 134.35 376.67 191.62 412.15C205.81 420.94 221.71 428.43 237.66 433.16C243.5 434.89 249.66 438.12 255.86 438.25C264.02 438.43 280.07 431.47 287.9 428.21C315.5 416.72 341.79 400.83 363.55 379.78C401.97 342.62 428.88 293.92 436.89 241.23C440.94 214.54 440.01 187.26 440.01 160.25C440.01 141.08 440.01 121.92 440.01 102.75C440.01 97.07 442.12 86.28 435.6 83.2C429.68 80.4 415.49 85.3 408.75 85.92C384.28 88.2 359.91 92.88 335.25 93.91C309.09 95 282.97 96.45 256.75 96.89C225.82 97.42 194.52 95.29 163.75 92.86C143.33 91.25 123.03 88.37 102.76 85.88C96.55 85.11 85.48 81.83 79.76 82.25ZM139.5 89.42C138.28 88.22 137.22 88.22 136 89.42C137.17 89.42 138.33 89.42 139.5 89.42ZM376.5 88.68C375.17 88.68 373.83 88.68 372.5 88.68C373.83 89.56 375.21 90.04 376.5 88.68ZM148.5 90.42C147.21 89.16 146.04 89.2 145 90.42C146.17 90.42 147.33 90.42 148.5 90.42ZM367 90.42C365.78 89.22 364.72 89.22 363.5 90.42C364.67 90.42 365.83 90.42 367 90.42ZM159.5 91C158.5 91 157.5 91 156.5 91C157.5 91 158.5 91 159.5 91ZM356.5 91.43C355.22 90.16 353.78 90.16 352.5 91.43C353.83 91.43 355.17 91.43 356.5 91.43ZM170.5 92.43C169.17 91.11 167.57 91.15 166.5 92.43C167.83 92.43 169.17 92.43 170.5 92.43ZM345.5 91.68C344.17 91.68 342.83 91.68 341.5 91.68C342.83 92.56 344.21 93.04 345.5 91.68ZM185 93.43C183.67 92.11 182.07 92.15 181 93.43C182.33 93.43 183.67 93.43 185 93.43ZM332 92.67C330.5 92.67 329 92.67 327.5 92.67C328.87 93.58 330.67 94.09 332 92.67ZM201.5 94.45C200.03 92.96 196.47 92.96 195 94.45C197.17 94.45 199.33 94.45 201.5 94.45ZM316.5 94.45C315.06 92.99 311.94 92.99 310.5 94.45C312.5 94.45 314.5 94.45 316.5 94.45ZM227 95.47C225.34 93.75 218.32 93.83 217 95.47C220.33 95.47 223.67 95.47 227 95.47ZM295 94.75C292.5 94.25 287.06 93.65 285 95.25C287.41 95.73 293.34 96.34 295 94.75ZM192.5 110.6C194.68 110.73 196.86 110.87 199.04 111C196.94 111.05 194.85 111.09 192.75 111.14C192.67 110.96 192.58 110.78 192.5 110.6ZM319.5 110.6C319.42 110.78 319.33 110.96 319.25 111.14C317.15 111.09 315.06 111.05 312.96 111C315.14 110.87 317.32 110.73 319.5 110.6ZM206 111.13C208.08 111.16 210.17 111.19 212.25 111.22C212.33 111.35 212.42 111.47 212.5 111.6C210.42 111.66 208.33 111.73 206.25 111.8C206.17 111.58 206.08 111.35 206 111.13ZM306 111.13C305.92 111.35 305.83 111.58 305.75 111.8C303.67 111.73 301.58 111.66 299.5 111.6C299.58 111.47 299.67 111.35 299.75 111.22C301.83 111.19 303.92 111.16 306 111.13ZM212.5 111.6C216.15 111.73 219.81 111.87 223.46 112C219.81 111.87 216.15 111.73 212.5 111.6ZM299.5 111.6C295.85 111.73 292.19 111.87 288.54 112C292.19 111.87 295.85 111.73 299.5 111.6ZM234.5 112.12C248.83 112.12 263.17 112.12 277.5 112.12C275.46 113.73 270.41 112.82 267.75 112.88C259.75 113.08 251.75 113.01 243.75 112.88C241.2 112.83 236.45 113.66 234.5 112.12ZM247.75 168.85C251.35 170.41 260.65 170.41 264.25 168.85C266.09 170.15 266.34 170.89 268.75 169.85C270.09 172.28 277.44 174.23 280.14 175.61C285.08 178.14 291.35 184.12 294.39 188.86C296.24 191.74 300.3 202.22 302.15 203.25C301.23 205.38 301.41 206.19 303.15 207.75C302.38 209.64 301.8 213.65 302.59 215.66C302.95 216.56 303.77 216.7 304 217.75C304.91 221.79 304.39 233.32 304 237.75C303.88 239.19 303.05 239.19 302.59 240.34C301.8 242.35 302.38 246.36 303.15 248.25C301.41 249.81 301.23 250.62 302.15 252.75C299.72 254.09 297.77 261.44 296.39 264.14C293.86 269.08 287.88 275.35 283.14 278.39C280.26 280.24 269.78 284.3 268.75 286.15C266.34 285.11 266.09 285.85 264.25 287.15C260.42 285.6 251.58 285.6 247.75 287.15C246.19 285.42 245.39 285.23 243.25 286.14C242.21 284.27 231.84 280.3 228.86 278.39C224.12 275.35 218.14 269.08 215.61 264.14C214.23 261.44 212.28 254.09 209.85 252.75C210.77 250.62 210.59 249.81 208.85 248.25C209.63 246.46 210.2 242.35 209.41 240.34C209.05 239.44 208.23 239.3 208 238.25C207.6 236.5 207.55 218.53 208.04 217.27C208.32 216.54 209.13 216.37 209.41 215.66C210.2 213.65 209.63 209.54 208.85 207.75C210.59 206.19 210.77 205.38 209.85 203.25C211.7 202.22 215.76 191.74 217.61 188.86C220.65 184.12 226.92 178.14 231.86 175.61C234.55 174.23 241.9 172.28 243.25 169.86C245.39 170.77 246.19 170.58 247.75 168.85ZM488 202.5C487.86 206.83 487.73 211.17 487.59 215.5C487.73 211.17 487.86 206.83 488 202.5ZM24 203C24.14 207.33 24.29 211.67 24.43 216C24.29 211.67 24.14 207.33 24 203ZM350.87 369.82C347.52 374.63 338.48 380.61 333.53 384.28C317.06 396.47 299.44 406.71 280.37 414.17C274.64 416.41 261.47 422.35 255.75 422.13C249.46 421.89 238.12 416.66 231.99 414.28C212.93 406.87 194.77 396.75 178.49 384.26C173.42 380.37 164.7 374.8 161.14 369.81C161.93 369.79 162.71 369.77 163.5 369.75C163.36 364.55 166.13 358.35 168.39 353.14C168.96 351.82 168.96 350.19 169.61 348.86C175.26 337.29 182.29 325.46 192.41 316.16C194.46 314.27 196.27 311.36 198.59 309.84C203.65 306.53 208.44 302.32 213.86 299.61C216.03 298.52 218.81 298.22 219.75 295.85C221.77 296.71 223.94 295.9 224.75 293.85C226.78 294.73 229.92 293.95 230.75 291.85C232.66 292.68 233.21 292.74 234.25 290.85C236.32 291.75 237.59 291.95 238.75 289.85C241.53 291.06 242.63 290.35 244.75 288.86C247.29 289.88 253.66 290.51 255.75 288.5C258.87 290.06 264.41 290.19 267.75 288.87C269.48 290.76 270.94 290.85 273.25 289.85C275.25 292.07 276.07 290.3 278.14 291.21C278.54 291.39 278.45 292.14 278.86 292.39C279.48 292.77 280.47 292.37 281.16 292.59C284.77 293.76 288.74 294.95 292.14 296.61C304.68 302.73 316.73 311.88 326.41 322.84C332.18 329.39 336.73 337.53 340.39 344.86C341.68 347.43 342.4 352.66 345.15 353.75C344.27 355.78 345.05 358.92 347.15 359.75C346.32 361.66 346.26 362.21 348.15 363.25C347.25 365.32 348.26 368.04 348.75 370.5C349.46 370.27 350.17 370.04 350.87 369.82Z" fill="#808080" fill-rule="evenodd" stroke="#808080" stroke-width="0.25" stroke-linejoin="round"/>
<path d="M204.54 46.99C206.88 47.13 209.21 47.26 211.55 47.4C211.62 47.52 211.68 47.64 211.75 47.76C214.67 47.8 217.58 47.83 220.5 47.87C224.49 47.92 228.47 47.96 232.46 48C235.72 49.21 240.67 48.47 244.25 48.58C252.73 48.85 261.27 48.8 269.75 48.55C273.02 48.46 277.51 49.11 280.5 48C284.5 47.96 288.5 47.91 292.5 47.87C295.25 47.83 298 47.79 300.75 47.76C300.82 47.64 300.89 47.52 300.95 47.4C303.32 47.27 305.69 47.13 308.06 47C324.64 46.59 341.31 44.89 357.79 43.2C383.64 40.55 409.54 37.56 435.07 32.77C446.96 30.53 458.82 28.15 470.69 25.83C475.2 24.96 480.09 22.66 484.38 25.37C488.67 28.1 488 33.37 488 37.75C488 48.25 488 58.75 488 69.25C488 113.67 488 158.08 488 202.5C487.86 206.83 487.73 211.17 487.59 215.5C487.84 221.16 486.89 227.22 486.21 232.85C484.12 250.26 480.85 267 476.17 283.85C455.91 356.91 403.37 422.21 336.52 458.29C318.2 468.17 299.36 476.1 279.5 482.26C272.23 484.52 263.4 488.12 255.75 488C248.13 487.89 239.87 484.26 232.59 482.22C212.56 476.61 193.9 467.87 175.53 458.25C108.37 423.1 56.2 356.31 35.82 283.86C30.23 263.99 23.79 236.61 24.43 216C24.29 211.67 24.14 207.33 24 203C23.93 158.42 24 113.83 24 69.25C24 58.75 24 48.25 24 37.75C24 33.36 23.26 28.05 27.48 25.24C31.76 22.4 37.34 24.84 41.86 25.8C53.71 28.31 65.64 30.35 77.51 32.74C91.74 35.59 106.28 37.27 120.66 39.2C148.4 42.93 176.52 46.16 204.54 46.99ZM40.25 42.18C38.66 49.63 40.01 64.05 40.01 72.25C40.01 92.92 40.01 113.58 40.01 134.25C40.01 152.25 40.01 170.25 40.01 188.25C40.01 209.49 40.05 230.84 44.19 251.66C60.47 333.51 104.65 395.76 175.64 440.13C193.59 451.34 213.93 460.4 234.18 466.14C240.28 467.87 249.61 471.85 255.75 471.98C261.95 472.1 277.62 466.51 283.91 464.21C310.88 454.35 333.67 442.55 357.52 426.28C402.63 395.48 437.47 346.79 455.79 296.1C461.01 281.65 464.66 266.68 467.8 251.63C471.99 231.58 471.99 210.74 471.99 190.25C471.99 173.08 471.99 155.92 471.99 138.75C471.99 117.08 471.99 95.42 471.99 73.75C471.99 65.17 473.42 49.96 471.75 42.17C465.91 41.75 453.05 45.6 446.71 46.88C430.37 50.16 413.69 52.22 397.23 54.87C387.35 56.46 377.23 57.17 367.27 58.17C332.52 61.64 297.79 63.9 262.75 64.1C226.75 64.31 190.95 62.67 155.22 59.19C141.91 57.89 128.48 56.95 115.27 54.89C98.61 52.29 81.85 50.01 65.28 46.88C58.67 45.64 46.4 41.81 40.25 42.18ZM79.76 82.25C85.48 81.83 96.55 85.11 102.76 85.88C123.03 88.37 143.33 91.25 163.75 92.86C194.52 95.29 225.82 97.42 256.75 96.89C282.97 96.45 309.09 95 335.25 93.91C359.91 92.88 384.28 88.2 408.75 85.92C415.49 85.3 429.68 80.4 435.6 83.2C442.12 86.28 440.01 97.07 440.01 102.75C440.01 121.92 440.01 141.08 440.01 160.25C440.01 187.26 440.94 214.54 436.89 241.23C428.88 293.92 401.97 342.62 363.55 379.78C341.79 400.83 315.5 416.72 287.9 428.21C280.07 431.47 264.02 438.43 255.86 438.25C249.66 438.12 243.5 434.89 237.66 433.16C221.71 428.43 205.81 420.94 191.62 412.15C134.35 376.67 99.82 330.51 80.77 266.41C76.82 253.1 74.03 238.71 73.03 224.75C70.44 188.62 71.99 151.97 71.99 115.75C71.99 109.03 70.44 91.71 73.15 86.38C74.33 84.06 77.24 82.44 79.76 82.25ZM161.14 369.81C164.7 374.8 173.42 380.37 178.49 384.26C194.77 396.75 212.93 406.87 231.99 414.28C238.12 416.66 249.46 421.89 255.75 422.13C261.47 422.35 274.64 416.41 280.37 414.17C299.44 406.71 317.06 396.47 333.53 384.28C338.48 380.61 347.52 374.63 350.87 369.82C387.81 333.44 411.29 292.28 420.79 241.12C425.53 215.6 424 189.09 424 163.25C424 149.25 424 135.25 424 121.25C424 114.41 424.99 106.65 423.75 99.94C421.21 99.32 418.29 100.54 415.73 100.85C408.53 101.72 401.36 102.83 394.16 103.8C376.28 106.19 358.26 107.86 340.26 109.19C333.45 109.69 326.31 110.86 319.5 110.6C317.32 110.73 315.14 110.87 312.96 111C310.64 111.05 308.32 111.09 306 111.13C303.92 111.16 301.83 111.19 299.75 111.22C299.67 111.35 299.58 111.47 299.5 111.6C295.85 111.73 292.19 111.87 288.54 112C284.86 112.04 281.18 112.08 277.5 112.12C263.17 112.12 248.83 112.12 234.5 112.12C230.82 112.08 227.14 112.04 223.46 112C219.81 111.87 216.15 111.73 212.5 111.6C212.42 111.47 212.33 111.35 212.25 111.22C210.17 111.19 208.08 111.16 206 111.13C203.68 111.09 201.36 111.05 199.04 111C196.86 110.87 194.68 110.73 192.5 110.6C182.07 110.99 171.1 109.16 160.69 108.21C146.56 106.91 132.41 105.73 118.34 103.8C111.15 102.81 103.97 101.72 96.76 100.85C94.06 100.52 90.93 99.28 88.25 99.94C87.01 106.65 88 114.41 88 121.25C88 135.25 88 149.25 88 163.25C88 189.15 86.62 215.54 91.2 241.14C100.27 291.86 124.4 333.98 161.14 369.81Z" fill="#010101" fill-rule="evenodd" stroke="#010101" stroke-width="0.25" stroke-linejoin="round"/>
</svg>